<?xml version="1.0" encoding="iso-8859-1"?>
<!-- Generator: Adobe Illustrator 19.0.0, SVG Export Plug-In . SVG Version: 6.00 Build 0)  -->
<svg version="1.1" id="Layer_1" xmlns="http://www.w3.org/2000/svg" xmlns:xlink="http://www.w3.org/1999/xlink" x="0px" y="0px"
	 viewBox="0 0 473.935 473.935" style="enable-background:new 0 0 473.935 473.935;" xml:space="preserve">
<circle style="fill:#EFC849;" cx="236.967" cy="236.967" r="236.967"/>
<path style="fill:#F5F5F5;" d="M144.396,93.788c-8.823,0-15.981,7.158-15.981,15.985v255.755c0,8.827,7.158,15.981,15.981,15.981
	h183.827c8.827,0,15.981-7.154,15.981-15.981V167.812l-77.047-74.024H144.396z"/>
<path style="fill:#E1E1E1;" d="M344.207,167.812h-61.066c-8.827,0-15.981-7.154-15.981-15.981V93.788L344.207,167.812z"/>
<g>
	<path style="fill:#C9C9C8;" d="M321.719,189.641c0,2.754-2.234,4.992-4.992,4.992H157.08c-2.754,0-4.988-2.238-4.988-4.992l0,0
		c0-2.754,2.234-4.992,4.988-4.992h159.647C319.485,184.65,321.719,186.887,321.719,189.641L321.719,189.641z"/>
	<path style="fill:#C9C9C8;" d="M321.719,215.834c0,2.754-2.234,4.992-4.992,4.992H157.08c-2.754,0-4.988-2.238-4.988-4.992l0,0
		c0-2.754,2.234-4.992,4.988-4.992h159.647C319.485,210.842,321.719,213.08,321.719,215.834L321.719,215.834z"/>
	<path style="fill:#C9C9C8;" d="M321.719,240.78c0,2.754-2.234,4.992-4.992,4.992H157.08c-2.754,0-4.988-2.238-4.988-4.992l0,0
		c0-2.758,2.234-4.988,4.988-4.988h159.647C319.485,235.789,321.719,238.023,321.719,240.78L321.719,240.78z"/>
	<path style="fill:#C9C9C8;" d="M321.719,266.973c0,2.754-2.234,4.992-4.992,4.992H157.08c-2.754,0-4.988-2.238-4.988-4.992l0,0
		c0-2.754,2.234-4.992,4.988-4.992h159.647C319.485,261.981,321.719,264.219,321.719,266.973L321.719,266.973z"/>
	<path style="fill:#C9C9C8;" d="M240.649,288.174H157.08c-2.754,0-4.988,2.238-4.988,4.992s2.234,4.992,4.988,4.992h83.569
		c2.758,0,4.992-2.238,4.992-4.992S243.407,288.174,240.649,288.174z"/>
</g>
<circle style="fill:#49A0AE;" cx="328.23" cy="358.014" r="57.062"/>
<g>
	<path style="fill:#FFFFFF;" d="M372.27,339.302c-2.496,0.015-4.992,0.015-7.484,0.022c-5.62-12.576-16.625-21.669-30.537-23.846
		c-15.498-2.425-30.331,4.771-39.184,17.437c-3.925,5.62,5.31,10.889,9.205,5.313c12.131-17.373,38.035-15.802,48.681,1.126
		c-2.305,0.007-4.606,0.015-6.915,0.015c-0.644,0-1.108,0.292-1.388,0.696c-0.464,0.498-0.636,1.22-0.146,1.972
		c4.389,6.81,8.778,13.624,13.167,20.434c0.733,1.149,2.327,1.134,3.053-0.007c4.359-6.832,8.707-13.665,13.07-20.501
		C374.512,340.836,373.554,339.302,372.27,339.302z"/>
	<path style="fill:#FFFFFF;" d="M353.49,376.697c-12.131,17.366-38.035,15.794-48.681-1.134c2.305-0.007,4.606-0.015,6.915-0.015
		c0.644,0,1.108-0.292,1.388-0.696c0.464-0.498,0.636-1.22,0.153-1.979c-4.393-6.81-8.778-13.616-13.175-20.426
		c-0.733-1.141-2.327-1.134-3.05,0.007c-4.359,6.832-8.711,13.665-13.074,20.501c-0.718,1.126,0.236,2.66,1.523,2.653
		c2.496-0.007,4.992-0.007,7.484-0.015c5.62,12.576,16.625,21.669,30.537,23.846c15.498,2.425,30.331-4.771,39.184-17.429
		C366.62,376.383,357.386,371.114,353.49,376.697z"/>
</g>
<g>
</g>
<g>
</g>
<g>
</g>
<g>
</g>
<g>
</g>
<g>
</g>
<g>
</g>
<g>
</g>
<g>
</g>
<g>
</g>
<g>
</g>
<g>
</g>
<g>
</g>
<g>
</g>
<g>
</g>
</svg>
